<svg width="70" height="70" viewBox="0 0 70 70" fill="none" xmlns="http://www.w3.org/2000/svg">
<g clip-path="url(#clip0_2336_115)">
<path d="M60.55 37.1C61.7651 37.1 62.9644 36.8249 64.0581 36.2953C65.1517 35.7658 66.1113 34.9955 66.8649 34.0423C67.6184 33.089 68.1464 31.9776 68.4092 30.7912C68.6721 29.6049 68.6629 28.3744 68.3825 27.1921C68.102 26.0098 67.5576 24.9063 66.7899 23.9644C66.0223 23.0225 65.0513 22.2666 63.9499 21.7533C62.8485 21.2401 61.6452 20.9829 60.4303 21.0009C59.2153 21.0189 58.0202 21.3118 56.9345 21.8575C57.4707 20.8943 57.7515 19.8099 57.75 18.7075C57.75 14.8575 54.3025 11.7075 50.05 11.7075C48.0525 11.6916 46.1199 12.416 44.625 13.741C44.7391 13.2521 44.7978 12.752 44.8 12.25C44.8 7.80501 40.411 4.20001 35 4.20001C29.589 4.20001 25.2 7.80501 25.2 12.25C25.2009 12.7579 25.2596 13.2639 25.375 13.7585C23.8801 12.4335 21.9475 11.7091 19.95 11.725C15.6975 11.725 12.25 14.875 12.25 18.725C12.2485 19.8274 12.5292 20.9118 13.0655 21.875C11.9797 21.3227 10.7827 21.024 9.56472 21.0015C8.34673 20.9789 7.13951 21.2331 6.03402 21.7448C4.92853 22.2566 3.95359 23.0126 3.18268 23.9558C2.41177 24.899 1.86498 26.0049 1.58352 27.1902C1.30207 28.3754 1.29327 29.6091 1.55781 30.7982C1.82235 31.9873 2.35332 33.1009 3.1107 34.055C3.86809 35.0091 4.83215 35.7789 5.93024 36.3064C7.02833 36.8338 8.2318 37.1052 9.44998 37.1C9.56898 37.1 9.68448 37.1 9.79998 37.1L60.2 37.1C60.3155 37.1 60.431 37.1 60.55 37.1Z" stroke="#7E1CFE" stroke-width="3" stroke-linejoin="bevel"/>
<path d="M3.759 23.541C2.24919 25.0508 1.40099 27.0986 1.40099 29.2338C1.40099 31.369 2.24919 33.4167 3.759 34.9265C5.26881 36.4363 7.31656 37.2845 9.45175 37.2845C11.5869 37.2845 13.6347 36.4363 15.1445 34.9265L15.1445 30.415" stroke="#7E1CFE" stroke-width="3" stroke-miterlimit="10"/>
<path d="M66.241 23.191C67.7239 24.7059 68.5493 26.7446 68.5382 28.8644C68.527 30.9843 67.6801 33.0142 66.1814 34.5134C64.6826 36.0126 62.653 36.8601 60.5331 36.8719C58.4133 36.8837 56.3744 36.0589 54.859 34.5765L54.859 30.6845" stroke="#7E1CFE" stroke-width="3" stroke-miterlimit="10"/>
<path d="M36.75 37.1L36.75 28.35L26.334 17.2375" stroke="#7E1CFE" stroke-width="3" stroke-miterlimit="10"/>
<path d="M39.6725 15.7395L30.996 21.8575" stroke="#7E1CFE" stroke-width="3" stroke-miterlimit="10"/>
<path d="M13.0655 21.8575L18.9 26.075" stroke="#7E1CFE" stroke-width="3" stroke-miterlimit="10"/>
<path d="M56.8785 21.8575L52.15 24.85L45.15 24.85" stroke="#7E1CFE" stroke-width="3" stroke-miterlimit="10"/>
<path d="M35 53.2L35 36.4" stroke="#7E1CFE" stroke-width="3" stroke-miterlimit="10"/>
<path d="M24.15 37.45L24.15 45.85L16.5655 50.05" stroke="#7E1CFE" stroke-width="3" stroke-miterlimit="10"/>
<path d="M45.5 37.45L45.5 45.85L53.0845 50.05" stroke="#7E1CFE" stroke-width="3" stroke-miterlimit="10"/>
<path d="M29.4 59.85C29.4 62.9428 31.9072 65.45 35 65.45C38.0928 65.45 40.6 62.9428 40.6 59.85C40.6 56.7572 38.0928 54.25 35 54.25C31.9072 54.25 29.4 56.7572 29.4 59.85Z" stroke="#EA0022" stroke-width="3" stroke-miterlimit="10"/>
<path d="M4.90001 52.15C4.90001 55.2428 7.40721 57.75 10.5 57.75C13.5928 57.75 16.1 55.2428 16.1 52.15C16.1 49.0572 13.5928 46.55 10.5 46.55C7.40721 46.55 4.90001 49.0572 4.90001 52.15Z" stroke="#EA0022" stroke-width="3" stroke-miterlimit="10"/>
<path d="M53.9 52.15C53.9 55.2428 56.4072 57.75 59.5 57.75C62.5928 57.75 65.1 55.2428 65.1 52.15C65.1 49.0572 62.5928 46.55 59.5 46.55C56.4072 46.55 53.9 49.0572 53.9 52.15Z" stroke="#EA0022" stroke-width="3" stroke-miterlimit="10"/>
</g>
<defs>
<clipPath id="clip0_2336_115">
<rect width="70" height="70" fill="white" transform="translate(70) rotate(90)"/>
</clipPath>
</defs>
</svg>
