<svg width="70" height="70" viewBox="0 0 70 70" fill="none" xmlns="http://www.w3.org/2000/svg">
<path d="M22.581 27.7563C22.581 32.2225 18.9439 35.8596 14.4774 35.8596C10.0111 35.8596 6.37411 32.2228 6.37411 27.7563C6.37411 23.2914 10.0107 19.6549 14.4774 19.6549C18.9444 19.6549 22.581 23.2914 22.581 27.7563Z" stroke="#754DE8" stroke-width="4"/>
<path d="M14.4778 44.8083L13.0342 43.3031L8.40724 38.4784C6.65715 39.6461 5.14214 41.3158 4.01497 43.3812L14.4778 44.8083ZM14.4778 44.8083L15.9212 43.3031M14.4778 44.8083L15.9212 43.3031M15.9212 43.3031L20.5479 38.4785M15.9212 43.3031L20.5479 38.4785M20.5479 38.4785C22.2981 39.6461 23.8133 41.316 24.9406 43.3814C26.077 45.4637 26.7579 47.8507 26.9186 50.3449H2.037C2.19769 47.8508 2.87854 45.4639 4.01491 43.3813L20.5479 38.4785Z" stroke="#754DE8" stroke-width="4"/>
<path d="M63.6256 27.7563C63.6256 32.2225 59.9885 35.8596 55.5219 35.8596C51.0555 35.8596 47.4187 32.2228 47.4187 27.7563C47.4187 23.2914 51.0553 19.6549 55.5219 19.6549C59.989 19.6549 63.6256 23.2914 63.6256 27.7563Z" stroke="#754DE8" stroke-width="4"/>
<path d="M55.5222 44.8083L54.0786 43.3032L49.4515 38.4785C47.7015 39.6461 46.1865 41.3159 45.0593 43.3812L55.5222 44.8083ZM55.5222 44.8083L56.9656 43.3031M55.5222 44.8083L56.9656 43.3031M56.9656 43.3031L61.5923 38.4784M56.9656 43.3031L61.5923 38.4784M61.5923 38.4784C63.3425 39.6461 64.8576 41.3159 65.9847 43.3813M61.5923 38.4784L45.0593 43.3813C43.9229 45.4639 43.2421 47.8508 43.0814 50.3449H67.963C67.8023 47.8508 67.1213 45.4639 65.9847 43.3813M65.9847 43.3813L67.7403 42.4232L65.9847 43.3813Z" stroke="#754DE8" stroke-width="4"/>
<path d="M37.0311 33.4286L37.2965 33.694L37.0311 33.4286ZM37.2965 26.5466C37.2965 26.5466 37.2965 26.5465 37.2964 26.5465L37.2965 26.5466Z" stroke="#754DE8" stroke-width="4"/>
<mask id="path-6-inside-1_2336_139" fill="white">
<path d="M30.848 41.0673H42.0191C42.675 41.0673 43.2067 40.5356 43.2067 39.8797C43.2067 39.2238 42.675 38.6921 42.0191 38.6921H30.848L32.9689 36.5714C33.4327 36.1075 33.4327 35.3556 32.9689 34.8918C32.5052 34.4283 31.7531 34.4283 31.2894 34.8918L27.1413 39.0399C26.6775 39.5037 26.6775 40.2556 27.1413 40.7193L31.2894 44.8676C31.5214 45.0995 31.8252 45.2156 32.1292 45.2156C32.4331 45.2156 32.7371 45.0995 32.969 44.8678C33.4329 44.4039 33.4329 43.652 32.969 43.1883L30.848 41.0673Z"/>
</mask>
<path d="M30.848 41.0673V37.0673H21.1911L28.0196 43.8957L30.848 41.0673ZM30.848 38.6921L28.0197 35.8635L21.1906 42.6921H30.848V38.6921ZM32.9689 36.5714L35.7972 39.3999L35.7973 39.3998L32.9689 36.5714ZM32.9689 34.8918L35.7973 32.0633L35.7968 32.0628L32.9689 34.8918ZM31.2894 34.8918L28.4615 32.0628L28.461 32.0633L31.2894 34.8918ZM27.1413 39.0399L24.3129 36.2115H24.3129L27.1413 39.0399ZM27.1413 40.7193L29.9698 37.891L29.9692 37.8904L27.1413 40.7193ZM31.2894 44.8676L28.4609 47.696L28.461 47.696L31.2894 44.8676ZM32.969 44.8678L35.7964 47.6972L35.7975 47.6962L32.969 44.8678ZM32.969 43.1883L30.1406 46.0168L30.1411 46.0173L32.969 43.1883ZM30.848 45.0673H42.0191V37.0673H30.848V45.0673ZM42.0191 45.0673C44.8841 45.0673 47.2067 42.7447 47.2067 39.8797H39.2067C39.2067 38.3264 40.4658 37.0673 42.0191 37.0673V45.0673ZM47.2067 39.8797C47.2067 37.0147 44.8841 34.6921 42.0191 34.6921V42.6921C40.4658 42.6921 39.2067 41.4329 39.2067 39.8797H47.2067ZM42.0191 34.6921H30.848V42.6921H42.0191V34.6921ZM33.6763 41.5206L35.7972 39.3999L30.1406 33.7428L28.0197 35.8635L33.6763 41.5206ZM35.7973 39.3998C37.8232 37.3739 37.8232 34.0893 35.7973 32.0633L30.1404 37.7202C29.0422 36.6219 29.0422 34.8412 30.1404 33.7429L35.7973 39.3998ZM35.7968 32.0628C33.7711 30.0379 30.4872 30.0379 28.4615 32.0628L34.1173 37.7207C33.019 38.8186 31.2393 38.8186 30.141 37.7207L35.7968 32.0628ZM28.461 32.0633L24.3129 36.2115L29.9697 41.8683L34.1179 37.7202L28.461 32.0633ZM24.3129 36.2115C22.2872 38.2371 22.2865 41.5221 24.3134 43.5483L29.9692 37.8904C31.0684 38.9892 31.0677 40.7703 29.9697 41.8683L24.3129 36.2115ZM24.3128 43.5477L28.4609 47.696L34.1179 42.0392L29.9698 37.891L24.3128 43.5477ZM28.461 47.696C29.4725 48.7075 30.8067 49.2156 32.1292 49.2156V41.2156C32.8438 41.2156 33.5702 41.4916 34.1179 42.0392L28.461 47.696ZM32.1292 49.2156C33.4512 49.2156 34.785 48.7079 35.7964 47.6972L30.1416 42.0383C30.6892 41.4912 31.415 41.2156 32.1292 41.2156V49.2156ZM35.7975 47.6962C37.8231 45.6706 37.8239 42.3856 35.797 40.3594L30.1411 46.0173C29.0419 44.9185 29.0426 43.1373 30.1406 42.0394L35.7975 47.6962ZM35.7975 40.3599L33.6764 38.2389L28.0196 43.8957L30.1406 46.0168L35.7975 40.3599Z" fill="#754DE8" mask="url(#path-6-inside-1_2336_139)"/>
</svg>
