<svg width="72" height="74" viewBox="0 0 72 74" fill="none" xmlns="http://www.w3.org/2000/svg">
<path d="M54.3966 23.8954C51.9281 23.8954 49.9199 26.0335 49.9199 28.6616C49.9199 31.2897 51.9281 33.4277 54.3966 33.4277C56.8652 33.4277 58.8733 31.2897 58.8733 28.6616C58.8733 26.0335 56.8652 23.8954 54.3966 23.8954ZM54.3966 31.5718C52.8894 31.5718 51.6631 30.2663 51.6631 28.6616C51.6631 27.0569 52.8894 25.7514 54.3966 25.7514C55.9039 25.7514 57.1301 27.0569 57.1301 28.6616C57.1301 30.2663 55.904 31.5718 54.3966 31.5718Z" fill="#754DE8" stroke="#754DE8"/>
<path d="M54.3966 29.9457C55.0627 29.9457 55.6027 29.3708 55.6027 28.6616C55.6027 27.9524 55.0627 27.3774 54.3966 27.3774C53.7304 27.3774 53.1904 27.9524 53.1904 28.6616C53.1904 29.3708 53.7304 29.9457 54.3966 29.9457Z" fill="#754DE8" stroke="#754DE8"/>
<path d="M11.585 54.7053C9.11646 54.7053 7.10829 56.8433 7.10829 59.4714C7.10829 62.0996 9.11646 64.2376 11.585 64.2376C14.0535 64.2376 16.0617 62.0996 16.0617 59.4714C16.0617 56.8433 14.0535 54.7053 11.585 54.7053ZM11.585 62.3817C10.0778 62.3817 8.85149 61.0761 8.85149 59.4714C8.85149 57.8667 10.0778 56.5612 11.585 56.5612C13.0922 56.5612 14.3185 57.8667 14.3185 59.4714C14.3185 61.0761 13.0924 62.3817 11.585 62.3817Z" fill="#754DE8" stroke="#754DE8"/>
<path d="M11.585 60.7555C12.2512 60.7555 12.7912 60.1806 12.7912 59.4714C12.7912 58.7622 12.2512 58.1873 11.585 58.1873C10.9189 58.1873 10.3789 58.7622 10.3789 59.4714C10.3789 60.1806 10.9189 60.7555 11.585 60.7555Z" fill="#754DE8" stroke="#754DE8"/>
<path d="M23.9933 5.42761C21.5248 5.42761 19.5166 7.56562 19.5166 10.1938C19.5166 12.8219 21.5248 14.9599 23.9933 14.9599C26.4618 14.9599 28.47 12.8219 28.47 10.1938C28.47 7.56562 26.4618 5.42761 23.9933 5.42761ZM23.9933 13.104C22.4861 13.104 21.2598 11.7985 21.2598 10.1938C21.2598 8.58907 22.4861 7.28352 23.9933 7.28352C25.5005 7.28352 26.7268 8.58907 26.7268 10.1938C26.7268 11.7985 25.5005 13.104 23.9933 13.104Z" fill="#754DE8" stroke="#754DE8"/>
<path d="M23.9942 11.4779C24.6604 11.4779 25.2004 10.9029 25.2004 10.1937C25.2004 9.48453 24.6604 8.90961 23.9942 8.90961C23.3281 8.90961 22.7881 9.48453 22.7881 10.1937C22.7881 10.9029 23.3281 11.4779 23.9942 11.4779Z" fill="#754DE8" stroke="#754DE8"/>
<path d="M43.8035 54.0591H34.7779C34.2964 54.0591 33.9062 54.4745 33.9062 54.987C33.9062 55.4996 34.2964 55.915 34.7779 55.915H43.8035C44.285 55.915 44.6751 55.4996 44.6751 54.987C44.6751 54.4745 44.2848 54.0591 43.8035 54.0591Z" fill="#754DE8" stroke="#754DE8"/>
<path d="M43.8035 58.6634H34.7779C34.2964 58.6634 33.9062 59.0788 33.9062 59.5913C33.9062 60.1039 34.2964 60.5193 34.7779 60.5193H43.8035C44.285 60.5193 44.6751 60.1039 44.6751 59.5913C44.6751 59.0788 44.2848 58.6634 43.8035 58.6634Z" fill="#754DE8" stroke="#754DE8"/>
<path d="M43.8035 63.2679H34.7779C34.2964 63.2679 33.9062 63.6833 33.9062 64.1959C33.9062 64.7085 34.2964 65.1239 34.7779 65.1239H43.8035C44.285 65.1239 44.6751 64.7085 44.6751 64.1959C44.6751 63.6833 44.2848 63.2679 43.8035 63.2679Z" fill="#754DE8" stroke="#754DE8"/>
<path d="M68.6628 21.0272H61.0341V15.0004C61.0341 14.7542 60.9422 14.5182 60.7788 14.3442L48.3176 1.07936C48.1542 0.905413 47.9325 0.807556 47.7013 0.807556H16.3503C15.8689 0.807556 15.4787 1.22294 15.4787 1.73551V45.4507H1.8716C1.39016 45.4507 1 45.8661 1 46.3786V72.564C1 73.0766 1.39016 73.492 1.8716 73.492H50.5727C51.0541 73.492 51.4443 73.0766 51.4443 72.564V66.325H60.1625C60.644 66.325 61.0341 65.9096 61.0341 65.397V36.2961H68.6628C69.9515 36.2961 71 35.1799 71 33.8079V23.5157C71 22.1435 69.9517 21.0272 68.6628 21.0272ZM48.5731 3.9756L58.0582 14.0724H48.5731V3.9756ZM49.7011 71.6362H2.7432V47.3066H49.7011V71.6362ZM59.2909 64.4691H51.4443V46.3786C51.4443 45.8661 51.0541 45.4507 50.5727 45.4507H17.2219V2.66347H46.8299V15.0004C46.8299 15.513 47.22 15.9283 47.7015 15.9283H59.2909V21.0272H49.5938C48.3051 21.0272 47.2566 22.1435 47.2566 23.5155V33.8077C47.2566 35.1797 48.3051 36.296 49.5938 36.296H59.2909V64.4691ZM69.2568 33.8079C69.2568 34.1566 68.9904 34.4402 68.6628 34.4402H49.5938C49.2662 34.4402 48.9998 34.1566 48.9998 33.8079V23.5157C48.9998 23.1669 49.2662 22.8833 49.5938 22.8833H68.6628C68.9904 22.8833 69.2568 23.1669 69.2568 23.5157V33.8079Z" fill="#754DE8" stroke="#754DE8"/>
<path d="M66.3682 26.1321H60.7271C60.2456 26.1321 59.8555 26.5475 59.8555 27.0601C59.8555 27.5727 60.2456 27.9881 60.7271 27.9881H66.3682C66.8497 27.9881 67.2398 27.5727 67.2398 27.0601C67.2398 26.5475 66.8497 26.1321 66.3682 26.1321Z" fill="#754DE8" stroke="#754DE8"/>
<path d="M66.3682 29.3351H60.7271C60.2456 29.3351 59.8555 29.7505 59.8555 30.2631C59.8555 30.7757 60.2456 31.1911 60.7271 31.1911H66.3682C66.8497 31.1911 67.2398 30.7757 67.2398 30.2631C67.2398 29.7505 66.8497 29.3351 66.3682 29.3351Z" fill="#754DE8" stroke="#754DE8"/>
<path d="M9.72615 43.8298C9.83201 44.2296 10.1748 44.5058 10.5649 44.5058C10.9551 44.5058 11.2979 44.2296 11.4037 43.8298L12.9885 37.846C13.0102 37.764 13.0213 37.6793 13.0213 37.5941V6.12235C13.0213 5.60978 12.6311 5.1944 12.1497 5.1944H8.98022C8.49878 5.1944 8.10862 5.60978 8.10862 6.12235V37.5942C8.10862 37.6794 8.11955 37.7641 8.14142 37.8461L9.72615 43.8298ZM10.1317 38.5222H10.9984L10.5649 40.1586L10.1317 38.5222ZM11.2781 7.05031V36.6663H9.85182V7.05031H11.2781Z" fill="#754DE8" stroke="#754DE8"/>
<path d="M1.8716 44.506H5.04106C5.5225 44.506 5.91266 44.0906 5.91266 43.578V12.1062C5.91266 12.0209 5.90172 11.9363 5.87985 11.8543L4.29513 5.87046C4.18927 5.47059 3.84649 5.1944 3.45633 5.1944C3.06617 5.1944 2.72339 5.47059 2.61753 5.87046L1.0328 11.8543C1.01093 11.9363 1 12.0209 1 12.1062V43.578C1 44.0904 1.39016 44.506 1.8716 44.506ZM2.7432 42.6501V13.0341H4.16946V42.6501H2.7432ZM3.88975 11.1782H3.02291L3.45633 9.54179L3.88975 11.1782Z" fill="#754DE8" stroke="#754DE8"/>
</svg>
