<svg width="70" height="56" viewBox="0 0 70 56" fill="none" xmlns="http://www.w3.org/2000/svg">
<path d="M12.8111 8.34519C12.8111 4.10461 15.9978 0.684692 20.0064 0.684692C23.9895 0.684692 27.2017 4.10461 27.2017 8.34519C27.1761 12.6133 23.9639 16.0057 20.0064 16.0057C16.0234 16.0057 12.8111 12.5858 12.8111 8.34519ZM52.5 41.2008H39.4445V28.7798C39.4445 22.7287 34.4775 17.8375 28.8889 17.8375H11.3889C5.25336 17.8375 -0.00275449 23.4979 2.32835e-05 29.0755V51.8474C-0.00719894 54.3709 1.66697 55.6887 3.33336 55.692C5.00391 55.6952 6.66669 54.3774 6.66669 51.8474V29.667H8.88891V55.692H30.5556V29.667H32.7778L32.8003 44.5633C32.7856 47.1448 34.2842 48.2441 35.8333 48.2985H52.5C57.0453 48.2985 57.0453 41.2008 52.5 41.2008ZM70 9.01977V34.3746C70 36.2268 68.6422 37.7064 66.8919 37.7064H46.2592C44.5089 37.7064 43.1511 36.2268 43.1511 34.3746V17.1514H47.2883V9.01977H70ZM68.08 11.1656H49.3039V32.5111C49.3039 33.1209 48.8689 33.5728 48.2961 33.5728C47.7233 33.5728 47.2883 33.0872 47.2883 32.5111V19.2973H45.0606V34.3746C45.0606 35.0409 45.6333 35.5605 46.2592 35.5605H66.9131C67.5389 35.5605 68.0586 34.9959 68.0586 34.3181H68.0797L68.08 11.1656ZM66.0644 13.1986H51.2131V21.3302H66.0644V13.1986ZM57.472 23.589H51.2133V25.6219H57.472V23.589ZM59.9117 25.6219H66.0644V23.589H59.9117V25.6219ZM57.472 27.5418H51.2133V29.5748H57.472V27.5418ZM59.9117 29.5748H66.0644V27.5418H59.9117V29.5748ZM59.9117 33.6406H66.0644V31.6077H59.9117V33.6406ZM57.472 31.6077H51.2133V33.6406H57.472V31.6077Z" fill="#754DE8"/>
</svg>
