<svg width="71" height="71" viewBox="0 0 71 71" fill="none" xmlns="http://www.w3.org/2000/svg">
<path d="M41.8882 61.1075H42.6261V59.1075V28.2478C42.6261 26.5169 41.2124 25.1569 39.522 25.1569H39.1145C41.9177 23.8016 43.8642 20.9512 43.8642 17.6362C43.8642 12.9999 40.0569 9.27257 35.4235 9.27257C30.7901 9.27257 26.9829 12.9999 26.9829 17.6362C26.9829 20.9512 28.9293 23.8016 31.7325 25.1569H31.3258C29.6338 25.1569 28.2217 26.5177 28.2217 28.2478V59.1075C28.2217 60.8376 29.6338 62.1984 31.3258 62.1984H39.5205C40.4617 62.1984 41.3154 61.7779 41.8882 61.1075ZM2 35.7358C2 17.5329 16.942 2.73584 35.4235 2.73584C53.9058 2.73584 68.847 17.5328 68.847 35.7358C68.847 53.9388 53.9058 68.7358 35.4235 68.7358C16.942 68.7358 2 53.9388 2 35.7358Z" stroke="#754DE8" stroke-width="4"/>
</svg>
